<?xml version="1.0" encoding="utf-8"?>
<!-- Generated by uplus.hikvision.com.cn -->
<!DOCTYPE svg PUBLIC "-//W3C//DTD SVG 1.1//EN" "http://www.w3.org/Graphics/SVG/1.1/DTD/svg11.dtd">
<svg version="1.1" xmlns="http://www.w3.org/2000/svg" xmlns:xlink="http://www.w3.org/1999/xlink" width="48" height="48" viewBox="0 0 16 16">
	<path d="M2,2h3v1H2V2z M2,5h3V4H2V5z M2,8h3v3H2V8z M3,10h1V9H3V10z M2,7h3V6H2V7z M13,4h-3v1h3V4z M13,11h-3V8h3V11z M12,9h-1v1h1
		V9z M15,1v11c0,0.552-0.448,1-1,1h-1v1.5c0,0.276-0.224,0.5-0.5,0.5h-10C2.224,15,2,14.776,2,14.5V13H1c-0.552,0-1-0.448-1-1V1
		c0-0.552,0.448-1,1-1h5c0.552,0,1,0.448,1,1v11c0,0.552-0.448,1-1,1H3v1h9v-1H9c-0.552,0-1-0.448-1-1V1c0-0.552,0.448-1,1-1h5
		C14.552,0,15,0.448,15,1z M6,12V1H1v11H6z M14,1H9v11h5V1z M13,6h-3v1h3V6z M13,2h-3v1h3V2z" />
</svg>
