<?xml version="1.0" encoding="utf-8"?>
<!-- Generated by uplus.hikvision.com.cn -->
<!DOCTYPE svg PUBLIC "-//W3C//DTD SVG 1.1//EN" "http://www.w3.org/Graphics/SVG/1.1/DTD/svg11.dtd">
<svg version="1.1" xmlns="http://www.w3.org/2000/svg" xmlns:xlink="http://www.w3.org/1999/xlink" width="48" height="48" viewBox="0 0 16 16">
	<path d="M13,10H12V9a1,1,0,0,0-1-1H8V7h3a1,1,0,0,0,1-1V2a1,1,0,0,0-1-1H4A1,1,0,0,0,3,2V6A1,1,0,0,0,4,7H7V8H4A1,1,0,0,0,3,9v1H2a1,1,0,0,0-1,1v2a1,1,0,0,0,1,1H5a1,1,0,0,0,1-1V11a1,1,0,0,0-1-1H4V9h7v1H10a1,1,0,0,0-1,1v2a1,1,0,0,0,1,1h3a1,1,0,0,0,1-1V11A1,1,0,0,0,13,10ZM11,6H4V2h7V6h0M5,13H2V11H5v2H5m8,0H10V11h3v2h0" />
</svg>
