<?xml version="1.0" standalone="no"?><!DOCTYPE svg PUBLIC "-//W3C//DTD SVG 1.1//EN" "http://www.w3.org/Graphics/SVG/1.1/DTD/svg11.dtd"><svg t="1540210316275" class="icon" style="" viewBox="0 0 1024 1024" version="1.1" xmlns="http://www.w3.org/2000/svg" p-id="1278" xmlns:xlink="http://www.w3.org/1999/xlink" width="200" height="200"><defs><style type="text/css"></style></defs><path d="M949.65726 253.775217L776.574163 11.498877C771.474661 4.29958 763.075481 0 754.27634 0H96.740553C81.542037 0 69.243238 12.298799 69.243238 27.497315v969.00537c0 15.198516 12.298799 27.497315 27.497315 27.497315h830.518894c15.198516 0 27.497315-12.298799 27.497315-27.497315V269.673665c0-5.699443-1.799824-11.298897-5.099502-15.898448zM313.619373 54.894639h373.7635c-0.599941 2.299775-0.899912 4.699541-0.899912 7.099307v249.375647h-371.963676V62.093936c0-2.499756-0.299971-4.899522-0.899912-7.199297z m396.761254 914.110732H313.619373c0.599941-2.299775 0.899912-4.699541 0.899912-7.099307V747.027048h394.96143v214.779026c0 2.499756 0.299971 4.899522 0.899912 7.199297z m189.381506 0H763.475442c0.599941-2.299775 0.899912-4.699541 0.899912-7.099307V719.629724c0-15.198516-12.298799-27.497315-27.497315-27.497315H287.021971c-15.198516 0-27.497315 12.298799-27.497315 27.497315V961.906064c0 2.499756 0.299971 4.899522 0.899912 7.099307H124.237867V54.894639h136.386681c-0.599941 2.299775-0.899912 4.699541-0.899912 7.099307v276.972952c0 15.198516 12.298799 27.497315 27.497315 27.497314H713.980275c15.198516 0 27.497315-12.298799 27.497315-27.497314V62.093936c0-2.199785-0.299971-4.39957-0.799922-6.499365l159.284445 222.978225v690.432575z" fill="" p-id="1279"></path><path d="M575.493799 200.480422m-35.996484 0a35.996485 35.996485 0 1 0 71.992969 0 35.996485 35.996485 0 1 0-71.992969 0Z" fill="" p-id="1280"></path></svg>